<svg xmlns="http://www.w3.org/2000/svg" width="163.034" height="50.328" viewBox="0 0 163.034 50.328"><g transform="translate(46.715 5.6)"><path d="M505.518,100.295c-.471-.108-.83-.485-.83-1.541v-8.92c0-5.7-1.1-8.081-7.943-8.081-7.254,0-8.038,3.352-8.038,4.792a8.378,8.378,0,0,0,.609,3.141l.083.21h3.439V86.208a8.413,8.413,0,0,1,3.906-.685,9.347,9.347,0,0,1,3.811.669v4.564l-3.308.415c-4.824.534-9.759,1.741-9.759,6.637,0,3.874,2.406,6.094,6.6,6.094a9.364,9.364,0,0,0,6.807-2.873,3.479,3.479,0,0,0,3.736,2.652,13.941,13.941,0,0,0,2.636-.23l.265-.055v-2.93A17.95,17.95,0,0,1,505.518,100.295Zm-10.577-.026c-2.109,0-3.138-.878-3.138-2.687,0-1.844,1.421-2.671,5.619-3.277l3.134-.443v4.124a8.4,8.4,0,0,1-5.616,2.283Z" transform="translate(-439.087 -71.401)" fill="#303033"/><path d="M284.108,56.66l-.135.088a14.434,14.434,0,0,1-8.309,2.221c-7.349,0-8.443-7.542-8.443-12.041,0-5.434,1.518-11.913,8.755-11.913a12.459,12.459,0,0,1,5.083,1.068l.471,5.6h3.545l.2-8.424-.2-.091a21.573,21.573,0,0,0-9-2.143c-6.083,0-10.38,3.092-12.222,8.748a.406.406,0,0,0-.02.06c-.009-.028-.016-.056-.024-.083-1.656-5.795-5.592-8.725-11.72-8.725-8.4,0-12.661,5.392-12.661,16.033,0,10.464,4.348,15.994,12.57,15.994,6.135,0,10.092-2.9,11.775-8.613.009-.025.016-.052.024-.076l.023.079c1.717,5.636,5.717,8.61,11.626,8.61a16.966,16.966,0,0,0,9.925-2.65l.218-.138Zm-32.027,2.491c-5.656,0-8.178-3.728-8.178-12.088,0-8.281,2.586-12.139,8.135-12.139,5.652,0,8.171,3.743,8.171,12.139C260.209,55.423,257.7,59.152,252.081,59.152Z" transform="translate(-239.421 -30.575)" fill="#303033"/><path d="M633.633,100.5v2.886h-9.266V100.5l2.506-.593V89.963c0-3.217-.85-4.3-3.36-4.3a6.4,6.4,0,0,0-4.712,1.905V99.912l2.5.593v2.886h-9.132V100.5l2.55-.593V87.705a3.936,3.936,0,0,0-3.811-2.048,5.88,5.88,0,0,0-4.53,1.917V99.912l2.5.593v2.886h-9.308V100.5l2.771-.593V85.931l-2.925-.592V82.207h6.688v1.672a8.368,8.368,0,0,1,5.613-2.119c2.7,0,4.443.814,5.756,2.712a9.063,9.063,0,0,1,6.708-2.712c4.68,0,6.767,2.458,6.767,7.98V99.912Z" transform="translate(-529.179 -71.407)" fill="#303033"/><path d="M782.076,60.521l-.229.091a8.864,8.864,0,0,1-3.273.566c-4.32,0-4.874-3.182-4.874-5.957V32.42l-3.779-.79V28.7h7.771V54.861c0,2.044.585,2.415,1.739,2.415a5.657,5.657,0,0,0,1.913-.293l.4-.146Z" transform="translate(-666.411 -28.7)" fill="#303033"/></g><g transform="translate(47.655 42.541)"><path d="M245.452,228.6a3.674,3.674,0,0,1-1.213-.57l.536-1.188a3.632,3.632,0,0,0,1.042.516,3.911,3.911,0,0,0,1.208.2,1.929,1.929,0,0,0,.994-.2.6.6,0,0,0,.322-.531.509.509,0,0,0-.19-.4,1.448,1.448,0,0,0-.488-.258q-.3-.1-.8-.215a11.006,11.006,0,0,1-1.276-.371,2.073,2.073,0,0,1-.852-.594,1.6,1.6,0,0,1-.355-1.09,1.9,1.9,0,0,1,.321-1.077,2.161,2.161,0,0,1,.969-.764,3.951,3.951,0,0,1,1.583-.283,5.226,5.226,0,0,1,1.276.156,3.771,3.771,0,0,1,1.091.448l-.488,1.2a3.8,3.8,0,0,0-1.89-.536,1.776,1.776,0,0,0-.979.215.654.654,0,0,0-.316.566.552.552,0,0,0,.365.521,5.739,5.739,0,0,0,1.115.336,11.254,11.254,0,0,1,1.276.371,2.121,2.121,0,0,1,.852.585,1.568,1.568,0,0,1,.355,1.081,1.862,1.862,0,0,1-.326,1.066,2.2,2.2,0,0,1-.979.765,4,4,0,0,1-1.588.282A5.592,5.592,0,0,1,245.452,228.6Z" transform="translate(-244.239 -221.035)" fill="#f67242"/><path d="M280.481,235.111a2.568,2.568,0,0,1-1.028-.959,2.806,2.806,0,0,1,0-2.786,2.569,2.569,0,0,1,1.028-.959,3.351,3.351,0,0,1,2.966,0,2.578,2.578,0,0,1,1.023.959,2.806,2.806,0,0,1,0,2.786,2.577,2.577,0,0,1-1.023.959,3.351,3.351,0,0,1-2.966,0Zm2.445-1.3a1.676,1.676,0,0,0,0-2.113,1.266,1.266,0,0,0-.959-.395,1.28,1.28,0,0,0-.964.395,1.659,1.659,0,0,0,0,2.114,1.281,1.281,0,0,0,.964.395A1.266,1.266,0,0,0,282.926,233.816Z" transform="translate(-272.284 -227.713)" fill="#f67242"/><path d="M315.379,222.054h1.344v1.169h-1.305v3.955H313.9v-3.955h-.808v-1.169h.808v-.234a1.911,1.911,0,0,1,.531-1.422,2.031,2.031,0,0,1,1.5-.527,2.8,2.8,0,0,1,.648.073,1.579,1.579,0,0,1,.511.209l-.4,1.1a1.04,1.04,0,0,0-.614-.185q-.692,0-.691.761Z" transform="translate(-299.656 -219.511)" fill="#f67242"/><path d="M340.245,230.665a1.567,1.567,0,0,1-.55.249,2.8,2.8,0,0,1-.687.083,2.04,2.04,0,0,1-1.446-.477,1.826,1.826,0,0,1-.511-1.4v-2.152h-.808v-1.169h.808v-1.276h1.519v1.276h1.305v1.169H338.57V229.1a.714.714,0,0,0,.171.511.63.63,0,0,0,.482.18.975.975,0,0,0,.614-.2Z" transform="translate(-318.291 -223.252)" fill="#f67242"/><path d="M369.46,230.461l-1.9,5.24H366.1l-1.179-3.253L363.7,235.7h-1.461l-1.89-5.24h1.432l1.237,3.545,1.286-3.545h1.286l1.247,3.545,1.276-3.545Z" transform="translate(-337.697 -228.035)" fill="#f67242"/><path d="M415.626,230.633a2.217,2.217,0,0,1,.652,1.748v2.99h-1.422v-.653a1.693,1.693,0,0,1-1.6.731,2.478,2.478,0,0,1-1.047-.2,1.56,1.56,0,0,1-.677-.566,1.47,1.47,0,0,1-.234-.818,1.366,1.366,0,0,1,.55-1.15,2.805,2.805,0,0,1,1.7-.419h1.208a.969.969,0,0,0-.3-.764,1.33,1.33,0,0,0-.906-.268,2.641,2.641,0,0,0-.823.132,2.177,2.177,0,0,0-.687.355l-.545-1.062a3.292,3.292,0,0,1,1.027-.468,4.611,4.611,0,0,1,1.232-.166A2.735,2.735,0,0,1,415.626,230.633Zm-1.3,3.614a.988.988,0,0,0,.429-.531v-.536h-1.042q-.935,0-.935.614a.546.546,0,0,0,.229.463,1.032,1.032,0,0,0,.628.171A1.323,1.323,0,0,0,414.33,234.246Z" transform="translate(-378.703 -227.705)" fill="#f67242"/><path d="M448.165,230.251a2.738,2.738,0,0,1,1.067-.2v1.4q-.254-.019-.341-.02a1.393,1.393,0,0,0-1.023.365,1.476,1.476,0,0,0-.371,1.1v2.474h-1.519v-5.24h1.451v.691A1.694,1.694,0,0,1,448.165,230.251Z" transform="translate(-406.615 -227.708)" fill="#f67242"/><path d="M473.094,233.188H469.13a1.234,1.234,0,0,0,.507.769,1.678,1.678,0,0,0,.994.282,2,2,0,0,0,.726-.122,1.763,1.763,0,0,0,.589-.385l.808.876a2.718,2.718,0,0,1-2.163.848,3.419,3.419,0,0,1-1.568-.346,2.533,2.533,0,0,1-1.052-.959,2.641,2.641,0,0,1-.371-1.393,2.675,2.675,0,0,1,.365-1.388,2.558,2.558,0,0,1,1-.964,3.106,3.106,0,0,1,2.82-.015,2.421,2.421,0,0,1,.979.95,2.833,2.833,0,0,1,.356,1.437Q473.123,232.808,473.094,233.188Zm-3.555-1.685a1.242,1.242,0,0,0-.429.8h2.581a1.257,1.257,0,0,0-.429-.794,1.283,1.283,0,0,0-.857-.3A1.308,1.308,0,0,0,469.539,231.5Z" transform="translate(-424.019 -227.713)" fill="#f67242"/><path d="M522.843,223.64v1.8H526v1.267h-3.156v2.484h-1.578v-6.819h5.153v1.266Z" transform="translate(-467.212 -221.526)" fill="#f67242"/><path d="M553.768,235.111a2.568,2.568,0,0,1-1.028-.959,2.806,2.806,0,0,1,0-2.786,2.57,2.57,0,0,1,1.028-.959,3.351,3.351,0,0,1,2.966,0,2.579,2.579,0,0,1,1.023.959,2.808,2.808,0,0,1,0,2.786,2.579,2.579,0,0,1-1.023.959,3.351,3.351,0,0,1-2.966,0Zm2.445-1.3a1.676,1.676,0,0,0,0-2.113,1.265,1.265,0,0,0-.959-.395,1.28,1.28,0,0,0-.964.395,1.658,1.658,0,0,0,0,2.113,1.281,1.281,0,0,0,.964.395A1.267,1.267,0,0,0,556.213,233.816Z" transform="translate(-492.248 -227.713)" fill="#f67242"/><path d="M594.411,230.461v5.24h-1.442v-.623a2.018,2.018,0,0,1-.721.521,2.271,2.271,0,0,1-.906.18,2.233,2.233,0,0,1-1.636-.594,2.374,2.374,0,0,1-.6-1.763v-2.961h1.52V233.2q0,1.266,1.062,1.266a1.141,1.141,0,0,0,.877-.356,1.5,1.5,0,0,0,.332-1.057v-2.591Z" transform="translate(-521.812 -228.035)" fill="#f67242"/><path d="M630.4,230.637a2.319,2.319,0,0,1,.6,1.734v3h-1.519V232.6a1.365,1.365,0,0,0-.273-.93,1,1,0,0,0-.789-.307,1.21,1.21,0,0,0-.915.356,1.471,1.471,0,0,0-.341,1.057v2.591h-1.52v-5.24h1.451v.613a2.017,2.017,0,0,1,.75-.511,2.616,2.616,0,0,1,.984-.18,2.156,2.156,0,0,1,1.573.584Z" transform="translate(-551.223 -227.704)" fill="#f67242"/><path d="M666.215,220.277V227.5h-1.451v-.6a2,2,0,0,1-1.637.682,2.72,2.72,0,0,1-1.339-.332,2.372,2.372,0,0,1-.94-.945,3.136,3.136,0,0,1,0-2.844,2.372,2.372,0,0,1,.94-.945,2.723,2.723,0,0,1,1.339-.332,1.994,1.994,0,0,1,1.568.633v-2.541Zm-1.87,5.664a1.66,1.66,0,0,0,0-2.114,1.363,1.363,0,0,0-1.919,0,1.66,1.66,0,0,0,0,2.114A1.364,1.364,0,0,0,664.345,225.941Z" transform="translate(-579.286 -219.838)" fill="#f67242"/><path d="M701.786,230.637a2.217,2.217,0,0,1,.653,1.748v2.99h-1.422v-.653a1.693,1.693,0,0,1-1.6.73,2.478,2.478,0,0,1-1.047-.2,1.56,1.56,0,0,1-.677-.566,1.47,1.47,0,0,1-.234-.818,1.366,1.366,0,0,1,.55-1.15,2.807,2.807,0,0,1,1.7-.419h1.208a.968.968,0,0,0-.3-.764,1.33,1.33,0,0,0-.905-.267,2.637,2.637,0,0,0-.823.132,2.173,2.173,0,0,0-.687.355l-.545-1.062a3.294,3.294,0,0,1,1.028-.468,4.609,4.609,0,0,1,1.232-.166A2.73,2.73,0,0,1,701.786,230.637Zm-1.3,3.614a.986.986,0,0,0,.429-.531v-.536h-1.042q-.935,0-.935.614a.546.546,0,0,0,.229.463,1.032,1.032,0,0,0,.628.171,1.322,1.322,0,0,0,.691-.18Z" transform="translate(-609.028 -227.709)" fill="#f67242"/><path d="M732.826,230.665a1.567,1.567,0,0,1-.55.249,2.8,2.8,0,0,1-.687.083,2.039,2.039,0,0,1-1.446-.477,1.828,1.828,0,0,1-.511-1.4v-2.152h-.808v-1.169h.808v-1.276h1.519v1.276h1.305v1.169h-1.305V229.1a.715.715,0,0,0,.17.511.631.631,0,0,0,.482.18.976.976,0,0,0,.614-.2Z" transform="translate(-634.272 -223.252)" fill="#f67242"/><path d="M755.238,219.478a.826.826,0,0,1,0-1.208.966.966,0,0,1,.683-.243.989.989,0,0,1,.682.234.75.75,0,0,1,.263.585.827.827,0,0,1-.263.628.952.952,0,0,1-.682.248A.965.965,0,0,1,755.238,219.478Zm-.078.974h1.52v5.24h-1.52Z" transform="translate(-655.321 -218.025)" fill="#f67242"/><path d="M772.5,235.111a2.569,2.569,0,0,1-1.028-.959,2.806,2.806,0,0,1,0-2.786,2.57,2.57,0,0,1,1.028-.959,3.352,3.352,0,0,1,2.966,0,2.581,2.581,0,0,1,1.023.959,2.807,2.807,0,0,1,0,2.786,2.58,2.58,0,0,1-1.023.959,3.352,3.352,0,0,1-2.966,0Zm2.445-1.3a1.676,1.676,0,0,0,0-2.114,1.265,1.265,0,0,0-.959-.395,1.281,1.281,0,0,0-.964.395,1.66,1.66,0,0,0,0,2.114,1.282,1.282,0,0,0,.964.395,1.266,1.266,0,0,0,.96-.395Z" transform="translate(-668.303 -227.713)" fill="#f67242"/><path d="M812.869,230.637a2.318,2.318,0,0,1,.6,1.734v3h-1.519V232.6a1.367,1.367,0,0,0-.273-.93,1,1,0,0,0-.789-.307,1.208,1.208,0,0,0-.915.356,1.471,1.471,0,0,0-.341,1.057v2.591h-1.52v-5.24h1.451v.613a2.017,2.017,0,0,1,.75-.511,2.615,2.615,0,0,1,.984-.18A2.156,2.156,0,0,1,812.869,230.637Z" transform="translate(-698.089 -227.704)" fill="#f67242"/></g><g transform="translate(4.857 22.754)"><path d="M25.092,116.623c-.012.017-.023.032-.035.05a.329.329,0,0,1,.032-.056S25.089,116.623,25.092,116.623Z" transform="translate(-25.025 -116.617)" fill="#f47851"/><path d="M147.658,166.323l-.01,17.7h-2.34l-1.559-15.767a19.75,19.75,0,0,0,2.142-.945c.8-.418,1.629-.917,1.752-1a.01.01,0,0,1,.016.008Z" transform="translate(-120.557 -156.616)" fill="#f47851"/><path d="M24.924,116.9a.426.426,0,0,0-.029.05s0-.006,0-.009Z" transform="translate(-24.892 -116.845)" fill="#f47851"/><path d="M40.7,167.725a19.4,19.4,0,0,0,1.877,1.106c.837.39,1.825.777,1.825.777l-3.81,6.341,2.678,9.22H40.592l-3.351-9.333Z" transform="translate(-34.831 -157.753)" fill="#f47851"/></g><path d="M25.269,58.032,25.3,74.874H23.1S22,67.543,22,67.485c-.674-4.258-1.358-8.85-1.359-8.85-.18.009-.366.013-.551.013a14.933,14.933,0,0,1-7.121-1.84,22.184,22.184,0,0,1-2.918-2.077c-1.115,4.933-6.507,9.5-6.507,9.5L3.208,74.855l-2.234,0L0,63.487a15.2,15.2,0,0,0,3.138-5.9,10.37,10.37,0,0,0,.269-3.131s-.987-.076-.991-.076a9.986,9.986,0,0,1-.188-2.212,8.872,8.872,0,0,1,.811-3.706A6.04,6.04,0,0,1,4,46.962,9.55,9.55,0,0,1,6.949,44.7a9.584,9.584,0,0,0,1.375-.63,14.357,14.357,0,0,0,2.1-2.358c.714-.824,1.325-1.773,2.1-2.543a3.469,3.469,0,0,1,2.232-.874,2.779,2.779,0,0,1,1.978.821c.517.517,2.448,3.592,3.406,3.592,1.015,0,2.484-2.846,3.363-3.592a3.634,3.634,0,0,1,.693-.5,2.759,2.759,0,0,1,1.29-.318,2.816,2.816,0,0,1,1.983.821c.353.358,2.817,4.46,3.586,5.378.922-.309,2.236-2.857,1.435-8.794-.075.007-4.128-1.255-4.128-1.255-.614.63-2.663.222-2.28-1.221C26.1,33.119,28.1,31.2,28.1,31.2l3.2.125a6.34,6.34,0,0,1,3.519-.539c.009.015,2.9.745,2.9.745s.4,4.441.4,9.1C38.116,47.62,34.554,55.813,25.269,58.032Z" transform="translate(0 -24.711)" fill="#f67242"/><path d="M29.236,7.729,27.653,6.68,29.388,4.4l-2.6-.882.594-1.75,2.541.928V0h1.947V2.693l2.541-.928L35,3.514,32.4,4.4,34.135,6.68,32.553,7.73,30.894,5.463Z" transform="translate(-21.56)" fill="#303033"/></svg>